# xmcd
#
# Track frame offsets:
#	150
#	12022
#	21343
#	34241
#	46542
#	60026
#	76316
#	89456
#	102694
#	117133
#	131725
#	146397
#	160654
#	178790
#	186775
#	203423
#	223750
#	238849
#
# Disc length: 3407 seconds
#
# Revision: 1
# Processed by: cddbd v1.4PL0 Copyright (c) Steve Scherf et al.
# Submitted via: audiograbber 1.80
#
DISCID=e90d4d12
DTITLE=Various Artist - Norske Countrygutter
DYEAR=1900
DGENRE=
TTITLE0=Big Hand's Country Team - Good Ol' Boys
TTITLE1=Teddy Nelson - Ola Med Sjød'n
TTITLE2=Arne Benoni - Stop The World
TTITLE3=The Teddybears - Fourty Days
TTITLE4=Rune Rudberg - Shot Full Of Love
TTITLE5=Steinar Raaen - Lonesome Old House
TTITLE6=Stein Ingebrigtsen - Den Første Sang Vi Lærte Oss Engang
TTITLE7=Gunnar Wiklund - Ingen Idé
TTITLE8=Ørnulf Holthe - Et Falmet Foto
TTITLE9=G. Thomas - One Way Ticket To Tennessee
TTITLE10=Tom Bråthen and Phoenix - Jeg Lenget Hjem
TTITLE11=Guggen - Seksten Tonn
TTITLE12=Vidar Johnsen - The End Of The World
TTITLE13=Vidar Lønn Arnesen - Davy Crockett
TTITLE14=Ottar Big Hand Johansen - Hverdagshelten
TTITLE15=Knut Freddy - Deck Of Cards
TTITLE16=Danilo - Does My Ring Hurt Your Finger
TTITLE17=Helge Borglund - Cowboyens Avskjed
EXTD=
EXTT0=
EXTT1=
EXTT2=
EXTT3=
EXTT4=
EXTT5=
EXTT6=
EXTT7=
EXTT8=
EXTT9=
EXTT10=
EXTT11=
EXTT12=
EXTT13=
EXTT14=
EXTT15=
EXTT16=
EXTT17=
PLAYORDER=
